<svg width="220" height="52" viewBox="0 0 220 52" fill="none" xmlns="http://www.w3.org/2000/svg">
  <rect x="1" y="1" width="50" height="50" rx="12" fill="#0B1633" stroke="#D4AF37" stroke-width="2"/>
  <path d="M14 34V14H27.5C33.8513 14 39 19.1487 39 25.5C39 31.8513 33.8513 37 27.5 37H20.5V34H27.5C32.1944 34 36 30.1944 36 25.5C36 20.8056 32.1944 17 27.5 17H17V34H14Z" fill="#D4AF37"/>
  <path d="M20.5 30.5V20.5H26.5C29.2614 20.5 31.5 22.7386 31.5 25.5C31.5 28.2614 29.2614 30.5 26.5 30.5H20.5Z" fill="#F1D68A"/>
  <text x="62" y="22" fill="#F8F5EE" font-family="Inter, Segoe UI, Arial, sans-serif" font-size="18" font-weight="700">RESUMORA</text>
  <text x="62" y="38" fill="#D4AF37" font-family="Inter, Segoe UI, Arial, sans-serif" font-size="11" font-weight="500" letter-spacing="1.4">PREMIUM CAREER STUDIO</text>
</svg>
